<svg xmlns="http://www.w3.org/2000/svg" xmlns:xlink="http://www.w3.org/1999/xlink" xmlns:inkscape="http://www.inkscape.org/namespaces/inkscape" version="1.1" width="61" height="72" viewBox="0 0 61 72">
<defs>
<clipPath id="clip_1">
<path transform="matrix(1.00003,0,0,-1.00005,1.6605606,47.03225)" d="M0 0V-27.89563H58.0229V0ZM58.0229-27.89563"/>
</clipPath>
<clipPath id="clip_2">
<path transform="matrix(1.00003,0,0,-1.00005,1.6605606,47.03225)" d="M0 0V27.89563H58.0229V0ZM58.0229 27.89563"/>
</clipPath>
<path id="font_3_2" d="M.2869873 .68333438C.2869873 .6843262 .2869873 .69433596 .27398683 .69433596 .25099183 .69433596 .17799378 .6863251 .1519928 .6843262 .14399719 .68333438 .1329956 .6823273 .1329956 .6643219 .1329956 .6523285 .14199829 .6523285 .15699768 .6523285 .20498657 .6523285 .20698548 .6453247 .20698548 .6353302L.20399475 .6153412 .05899048 .039260866C.054992677 .025253296 .054992677 .023254395 .054992677 .01725769 .054992677-.0057525637 .07499695-.0107421879 .083999637-.0107421879 .099990848-.0107421879 .115997318 .0012512207 .12098694 .015258789L.13999939 .091278079 .1619873 .18130493C.16799927 .2033081 .17399597 .22531128 .1789856 .24832154 .18099976 .25431825 .18899536 .28733827 .18998719 .29333497 .19299317 .30233766 .22399903 .35835267 .2579956 .38536073 .27999879 .4013672 .31098939 .42037965 .35398866 .42037965 .39698792 .42037965 .4079895 .3863678 .4079895 .35035707 .4079895 .29634095 .36999513 .18730164 .34599305 .12628174 .33799745 .103271488 .33299256 .091278079 .33299256 .0712738 .33299256 .024261475 .36799623-.0107421879 .4149933-.0107421879 .5089874-.0107421879 .54599 .13528443 .54599 .14329529 .54599 .1532898 .5369873 .1532898 .5339966 .1532898 .5239868 .1532898 .5239868 .15029907 .5189972 .13528443 .5039978 .08227539 .47200013 .011245728 .4169922 .011245728 .3999939 .011245728 .3929901 .021255494 .3929901 .044265748 .3929901 .0692749 .4019928 .09327698 .41099549 .11528015 .4269867 .15829468 .47200013 .2773285 .47200013 .3353424 .47200013 .4003601 .43199159 .4423828 .35699464 .4423828 .2939911 .4423828 .24598694 .41137696 .20899964 .36535646L.2869873 .68333438Z"/>
<path id="font_3_1" d="M.1789856 .114868167C.13899231 .047973634 .099990848 .033981325 .055999757 .0309906 .04399109 .02999878 .034988405 .02999878 .034988405 .010986328 .034988405 .004989624 .039993287 0 .04798889 0 .07499695 0 .10598755 .0029907227 .13398743 .0029907227 .16699219 .0029907227 .20199585 0 .23399353 0 .23999024 0 .25299073 0 .25299073 .018997193 .25299073 .02999878 .24398804 .0309906 .23699951 .0309906 .21398926 .032989503 .18998719 .04096985 .18998719 .06593323 .18998719 .077926639 .19599915 .088897708 .20399475 .102890018L.27999879 .23068238H.5309906C.5329895 .2097168 .5469971 .07392883 .5469971 .063949588 .5469971 .033981325 .49499513 .0309906 .47499085 .0309906 .46099855 .0309906 .45098878 .0309906 .45098878 .010986328 .45098878 0 .46299745 0 .46499635 0 .5059967 0 .548996 .0029907227 .58999636 .0029907227 .61499026 .0029907227 .6779938 0 .7029877 0 .70899966 0 .72099307 0 .72099307 .019989014 .72099307 .0309906 .71099856 .0309906 .69799807 .0309906 .6359863 .0309906 .6359863 .037979127 .6329956 .06694031L.57199099 .691803C.56999209 .71180728 .56999209 .7158203 .5529938 .7158203 .5369873 .7158203 .5329895 .7088165 .5269928 .69880679L.1789856 .114868167M.29899598 .26168824 .49598695 .5917816 .5279999 .26168824H.29899598Z"/>
</defs>
<g clip-path="url(#clip_1)">
<path transform="matrix(1.00003,0,0,-1.00005,1.6605606,47.03225)" stroke-width=".79701" stroke-linecap="butt" stroke-miterlimit="10" stroke-linejoin="miter" fill="none" stroke="#000000" d="M0 0C0 0 10.48042 14.41508 14.50572 16.73737 18.531 19.05965 22.97351 19.05965 29.01144 16.73737 35.04936 14.41508 56.01025 3.87045 58.0229 0 60.03554-3.87045 47.54247-8.83595 43.51718-11.15825 39.49187-13.48051 33.03673-15.18916 29.01144-16.73737 24.98615-18.28555 18.531-24.63876 14.50572-22.3165 10.48042-19.99422 0 0 0 0"/>
</g>
<g clip-path="url(#clip_2)">
<path transform="matrix(1.00003,0,0,-1.00005,1.6605606,47.03225)" stroke-width=".79701" stroke-linecap="butt" stroke-dasharray="2.98883,2.98883" stroke-miterlimit="10" stroke-linejoin="miter" fill="none" stroke="#000000" d="M0 0C0 0 10.48042 14.41508 14.50572 16.73737 18.531 19.05965 22.97351 19.05965 29.01144 16.73737 35.04936 14.41508 56.01025 3.87045 58.0229 0 60.03554-3.87045 47.54247-8.83595 43.51718-11.15825 39.49187-13.48051 33.03673-15.18916 29.01144-16.73737 24.98615-18.28555 18.531-24.63876 14.50572-22.3165 10.48042-19.99422 0 0 0 0"/>
</g>
<path transform="matrix(1.00003,0,0,-1.00005,1.6605606,47.03225)" stroke-width=".79701" stroke-linecap="butt" stroke-miterlimit="10" stroke-linejoin="miter" fill="none" stroke="#000000" d="M0 0 29.01144 44.633 58.0229 0"/>
<path transform="matrix(1.00003,0,0,-1.00005,1.6605606,47.03225)" stroke-width=".79701" stroke-linecap="butt" stroke-dasharray="2.98883,2.98883" stroke-miterlimit="10" stroke-linejoin="miter" fill="none" stroke="#000000" d="M29.01144 0V44.633"/>
<use data-text="h" xlink:href="#font_3_2" transform="matrix(9.962899,0,0,-9.963098,34.392545,28.174307)"/>
<path transform="matrix(1.00003,0,0,-1.00005,1.6605606,47.03225)" d="M30.12727 0C30.12727 .61626 29.6277 1.11581 29.01144 1.11581 28.39519 1.11581 27.89563 .61626 27.89563 0 27.89563-.61626 28.39519-1.11581 29.01144-1.11581 29.6277-1.11581 30.12727-.61626 30.12727 0ZM29.01144 0"/>
<path transform="matrix(1.00003,0,0,-1.00005,1.6605606,47.03225)" stroke-width=".79701" stroke-linecap="butt" stroke-miterlimit="10" stroke-linejoin="miter" fill="none" stroke="#000000" d="M30.12727 0C30.12727 .61626 29.6277 1.11581 29.01144 1.11581 28.39519 1.11581 27.89563 .61626 27.89563 0 27.89563-.61626 28.39519-1.11581 29.01144-1.11581 29.6277-1.11581 30.12727-.61626 30.12727 0ZM29.01144 0"/>
<path transform="matrix(1.00003,0,0,-1.00005,1.6605606,47.03225)" stroke-width=".79701" stroke-linecap="butt" stroke-miterlimit="10" stroke-linejoin="miter" fill="none" stroke="#000000" d="M21.75859-8.36868"/>
<use data-text="A" xlink:href="#font_3_1" transform="matrix(9.962899,0,0,-9.963098,19.684103,58.80584)"/>
</svg>
