<svg xmlns="http://www.w3.org/2000/svg" xmlns:xlink="http://www.w3.org/1999/xlink" xmlns:inkscape="http://www.inkscape.org/namespaces/inkscape" version="1.1" width="197" height="164" viewBox="0 0 197 164">
<defs>
<clipPath id="clip_1">
<path transform="matrix(1.00005,0,0,-1.00005,1.4609223,162.60106)" d="M0 0H194.27368V161.39636H0Z"/>
</clipPath>
<path id="font_2_2" d="M.1789856 .114868167C.13899231 .047973634 .099990848 .033981325 .055999757 .0309906 .04399109 .02999878 .034988405 .02999878 .034988405 .010986328 .034988405 .004989624 .039993287 0 .04798889 0 .07499695 0 .10598755 .0029907227 .13398743 .0029907227 .16699219 .0029907227 .20199585 0 .23399353 0 .23999024 0 .25299073 0 .25299073 .018997193 .25299073 .02999878 .24398804 .0309906 .23699951 .0309906 .21398926 .032989503 .18998719 .04096985 .18998719 .06593323 .18998719 .077926639 .19599915 .088897708 .20399475 .102890018L.27999879 .23068238H.5309906C.5329895 .2097168 .5469971 .07392883 .5469971 .063949588 .5469971 .033981325 .49499513 .0309906 .47499085 .0309906 .46099855 .0309906 .45098878 .0309906 .45098878 .010986328 .45098878 0 .46299745 0 .46499635 0 .5059967 0 .548996 .0029907227 .58999636 .0029907227 .61499026 .0029907227 .6779938 0 .7029877 0 .70899966 0 .72099307 0 .72099307 .019989014 .72099307 .0309906 .71099856 .0309906 .69799807 .0309906 .6359863 .0309906 .6359863 .037979127 .6329956 .06694031L.57199099 .691803C.56999209 .71180728 .56999209 .7158203 .5529938 .7158203 .5369873 .7158203 .5329895 .7088165 .5269928 .69880679L.1789856 .114868167M.29899598 .26168824 .49598695 .5917816 .5279999 .26168824H.29899598Z"/>
<path id="font_3_1" d="M.33499146 .63612368C.33499146 .6630554 .33299256 .6640625 .30499269 .6640625 .24099732 .6014404 .1499939 .6004486 .10899353 .6004486V.5644531C.1329956 .5644531 .19898987 .5644531 .2539978 .592453V.08203125C.2539978 .04899597 .2539978 .035995485 .1539917 .035995485H.115997318V0C.13398743 .0009918213 .25698854 .0039978029 .2939911 .0039978029 .32499696 .0039978029 .45098878 .0009918213 .47299195 0V.035995485H.43499757C.33499146 .035995485 .33499146 .04899597 .33499146 .08203125V.63612368Z"/>
<path id="font_3_2" d="M.272995 .33428956C.35099793 .33428956 .40699769 .2803192 .40699769 .1733551 .40699769 .04940796 .33499146 .012466431 .2769928 .012466431 .23699951 .012466431 .14898682 .0234375 .10699463 .082351688 .1539917 .084350589 .16499329 .11735535 .16499329 .13835144 .16499329 .17034912 .14099121 .19335938 .10998535 .19335938 .08198547 .19335938 .053985597 .17634583 .053985597 .13534546 .053985597 .041412355 .1579895-.01953125 .2789917-.01953125 .41799928-.01953125 .5139923 .07336426 .5139923 .1733551 .5139923 .2513275 .44999696 .32929994 .33999635 .35229493 .44499208 .39024354 .48298646 .4650879 .48298646 .5260773 .48298646 .60505679 .3919983 .6640625 .2809906 .6640625 .16999817 .6640625 .084991458 .61006167 .084991458 .5300751 .084991458 .49606324 .10699463 .47706605 .13699341 .47706605 .16799927 .47706605 .18798828 .5000763 .18798828 .5280762 .18798828 .5570679 .16799927 .57806399 .13699341 .5800781 .17199707 .62405398 .24099732 .63505557 .27799989 .63505557 .32299806 .63505557 .38598634 .6130676 .38598634 .5260773 .38598634 .48406983 .37199403 .43814088 .34599305 .4072113 .31298829 .36927796 .2849884 .3672943 .23498535 .36428834 .20999146 .3623047 .20799256 .3623047 .20298767 .3612976 .20098877 .3612976 .19299317 .3592987 .19299317 .34829713 .19299317 .33428956 .20199585 .33428956 .21899414 .33428956H.272995Z"/>
<path id="font_4_1" d="M.6589966 .23046875C.6759949 .23046875 .69400027 .23046875 .69400027 .25045777 .69400027 .27046205 .6759949 .27046205 .6589966 .27046205H.117996219C.100997928 .27046205 .08299255 .27046205 .08299255 .25045777 .08299255 .23046875 .100997928 .23046875 .117996219 .23046875H.6589966Z"/>
<path id="font_5_2" d="M.2939911 .64004519C.2939911 .66400149 .2939911 .6660156 .2709961 .6660156 .20899964 .60227969 .12098694 .60227969 .08898926 .60227969V.57128909C.10899353 .57128909 .16799927 .57128909 .21998596 .5972748V.07902527C.21998596 .042999269 .21699524 .0309906 .1269989 .0309906H.09498596V0C.12998963 .0029907227 .21699524 .0029907227 .25698854 .0029907227 .29699708 .0029907227 .38398744 .0029907227 .4189911 0V.0309906H.3869934C.29699708 .0309906 .2939911 .041992189 .2939911 .07902527V.64004519Z"/>
<path id="font_5_1" d="M.45999146 .31976319C.45999146 .39982606 .45498658 .47988893 .41999818 .5539398 .37399293 .65000918 .2919922 .6660156 .25 .6660156 .18998719 .6660156 .116989139 .64001467 .07598877 .54693606 .04399109 .47789 .038986207 .39982606 .038986207 .31976319 .038986207 .24472046 .042999269 .15464783 .083999637 .07859802 .1269989-.0024719239 .19999695-.022460938 .24899292-.022460938 .30299378-.022460938 .3789978-.0014648438 .4229889 .09359741 .45498658 .16265869 .45999146 .2407074 .45999146 .31976319M.24899292-.00047302247C.20999146-.00047302247 .15098572 .024551392 .1329956 .12062073 .12199402 .18066406 .12199402 .2727356 .12199402 .3317871 .12199402 .39582826 .12199402 .46188355 .12998963 .5159149 .14898682 .63500979 .22399903 .64401248 .24899292 .64401248 .28199769 .64401248 .34799195 .6259918 .36698915 .52693179 .3769989 .47088624 .3769989 .39482118 .3769989 .3317871 .3769989 .25672914 .3769989 .18867493 .3659973 .12461853 .35099793 .029556275 .2939911-.00047302247 .24899292-.00047302247Z"/>
<path id="font_5_3" d="M.1269989 .07699585 .23298645 .18003845C.3889923 .31811524 .44898988 .3721466 .44898988 .47216798 .44898988 .5860901 .35899354 .6660156 .23699951 .6660156 .12399292 .6660156 .049987794 .57411196 .049987794 .48516847 .049987794 .4291687 .099990848 .4291687 .102996829 .4291687 .11999512 .4291687 .15499878 .44117738 .15499878 .48217774 .15499878 .5081787 .13699341 .5341797 .101989749 .5341797 .09399414 .5341797 .09199524 .5341797 .08898926 .5331726 .11199951 .59806826 .1659851 .63500979 .22399903 .63500979 .31498719 .63500979 .35798646 .5541382 .35798646 .47216798 .35798646 .39215089 .30799867 .31311036 .25299073 .25108338L.06098938 .036987306C.049987794 .025985718 .049987794 .023986817 .049987794 0H.42099L.44898988 .17404175H.42399598C.4189911 .14402771 .4119873 .1000061 .4019928 .084991458 .394989 .07699585 .32899476 .07699585 .30699159 .07699585H.1269989Z"/>
<path id="font_5_4" d="M.44898988 .20022583C.44898988 .3193512 .36698915 .41944886 .25898744 .41944886 .21099854 .41944886 .16799927 .40345765 .13198853 .36842347V.5637665C.1519928 .5577698 .18499756 .55078127 .21699524 .55078127 .33999635 .55078127 .4099884 .6417694 .4099884 .6547699 .4099884 .6607666 .40699769 .6657715 .3999939 .6657715 .39898683 .6657715 .39698792 .6657715 .3919983 .66278079 .37199403 .6537781 .32299806 .6337738 .2559967 .6337738 .21598816 .6337738 .16999817 .6407776 .12298584 .6617737 .114990238 .66477969 .11299133 .66477969 .11099243 .66477969 .100997928 .66477969 .100997928 .6567688 .100997928 .6407776V.34439088C.100997928 .32637025 .100997928 .31835938 .114990238 .31835938 .12199402 .31835938 .12399292 .32136537 .12799073 .32736207 .13899231 .3433838 .17599488 .39746095 .25698854 .39746095 .30899049 .39746095 .33399964 .35139466 .34199525 .33337403 .35798646 .29632569 .3600006 .25727845 .3600006 .20722962 .3600006 .17222595 .3600006 .11222839 .33599855 .07035828 .31199647 .031463624 .2749939 .0055389406 .22898865 .0055389406 .1559906 .0055389406 .09899902 .058380128 .08198547 .11723328 .084991458 .1162262 .08799744 .115234378 .09899902 .115234378 .13198853 .115234378 .14898682 .14022827 .14898682 .16423035 .14898682 .18823242 .13198853 .21322632 .09899902 .21322632 .084991458 .21322632 .049987794 .20622254 .049987794 .16023255 .049987794 .07434082 .11898804-.022460938 .23098755-.022460938 .34700013-.022460938 .44898988 .073349 .44898988 .20022583Z"/>
<path id="font_2_1" d="M.43899537 .71199038C.44400025 .72499087 .44400025 .72898867 .44400025 .7299957 .44400025 .7409973 .43499757 .75 .42399598 .75 .4169922 .75 .4099884 .746994 .40699769 .7409973L.05999756-.21200562C.054992677-.2250061 .054992677-.2290039 .054992677-.23001099 .054992677-.24101258 .06399536-.25 .07499695-.25 .08799744-.25 .09098816-.24301148 .09700012-.22601319L.43899537 .71199038Z"/>
<path id="font_5_5" d="M.16299439 .4569702C.116989139 .486969 .11299133 .52098086 .11299133 .5379791 .11299133 .598999 .17799378 .64100649 .24899292 .64100649 .32199098 .64100649 .38598634 .58898928 .38598634 .51698306 .38598634 .45996095 .34700013 .4119568 .2869873 .37695313L.16299439 .4569702M.30899049 .36193849C.3809967 .3989563 .42999269 .45095826 .42999269 .51698306 .42999269 .6090088 .34098817 .6660156 .25 .6660156 .1499939 .6660156 .068984989 .59199526 .068984989 .49897767 .068984989 .4809723 .070999149 .43595887 .11299133 .38894654 .12399292 .37695313 .16099549 .35194398 .18598938 .33494569 .12799073 .30592347 .041992189 .24984741 .041992189 .15072632 .041992189 .04458618 .14399719-.022460938 .24899292-.022460938 .3619995-.022460938 .45700074 .06060791 .45700074 .16773987 .45700074 .20379639 .44599916 .24885559 .4079895 .2909088 .3889923 .31193543 .37298585 .3219452 .30899049 .36193849M.20899964 .3199463 .33198548 .24183655C.3600006 .2228241 .40699769 .19277954 .40699769 .13169861 .40699769 .05760193 .33198548 .0055389406 .25 .0055389406 .1639862 .0055389406 .09199524 .067611698 .09199524 .15072632 .09199524 .20880127 .12399292 .27288819 .20899964 .3199463Z"/>
<path id="font_2_3" d="M.20599365 .3996582H.2999878C.31999208 .3996582 .32998658 .3996582 .32998658 .41966249 .32998658 .43066407 .31999208 .43066407 .3019867 .43066407H.21398926C.25 .5724945 .25498963 .59246829 .25498963 .59846499 .25498963 .61546328 .24299622 .62545779 .22599793 .62545779 .22299195 .62545779 .19499207 .62446597 .18598938 .58947756L.14698792 .43066407H.052993776C.032989503 .43066407 .022994996 .43066407 .022994996 .4116516 .022994996 .3996582 .0309906 .3996582 .050994874 .3996582H.13899231C.066986087 .11608887 .06298828 .099121097 .06298828 .08114624 .06298828 .02722168 .100997928-.0107421879 .15499878-.0107421879 .25698854-.0107421879 .31399537 .13505554 .31399537 .14305115 .31399537 .1530304 .30599977 .1530304 .3019867 .1530304 .29299928 .1530304 .2919922 .15003968 .2869873 .13905335 .24398804 .035217287 .19099427 .011245728 .15699768 .011245728 .13598633 .011245728 .12599182 .024230957 .12599182 .057174684 .12599182 .08114624 .12799073 .088134769 .13198853 .10510254L.20599365 .3996582Z"/>
<path id="font_2_4" d="M.48599244 .38136292C.48999024 .39537049 .48999024 .39736939 .48999024 .40437318 .48999024 .42237855 .47599793 .43138124 .46099855 .43138124 .45098878 .43138124 .43499757 .42536927 .42599488 .41036988 .42399598 .405365 .41600038 .37435914 .4119873 .35635377 .40499879 .33035279 .397995 .30334474 .3919983 .27633668L.34700013 .09628296C.34298707 .08126831 .2999878 .011245728 .23399353 .011245728 .18299866 .011245728 .17199707 .055267335 .17199707 .0922699 .17199707 .1382904 .18899536 .20030213 .22299195 .28833009 .23899842 .3293457 .24299622 .3403473 .24299622 .36035157 .24299622 .405365 .21099854 .4423828 .16099549 .4423828 .06599426 .4423828 .0289917 .29733277 .0289917 .28833009 .0289917 .27833558 .038986207 .27833558 .040985109 .27833558 .050994874 .27833558 .051986696 .28033448 .056991579 .29634095 .083999637 .3903656 .12399292 .42037965 .1579895 .42037965 .1659851 .42037965 .18299866 .42037965 .18299866 .3883667 .18299866 .36335755 .17298889 .3373413 .1659851 .31834413 .12599182 .21231079 .10798645 .1552887 .10798645 .10827637 .10798645 .019256592 .17098999-.0107421879 .22999573-.0107421879 .2689972-.0107421879 .30299378 .0062561037 .33099366 .03425598 .31799317-.017745972 .30599977-.06674194 .2659912-.11973572 .23999024-.15385437 .20199585-.18309021 .1559906-.18309021 .14199829-.18309021 .09700012-.18005371 .07998657-.14074707 .09599304-.14074707 .10899353-.14074707 .12298584-.1287384 .1329956-.11973572 .14299011-.10673523 .14299011-.08773804 .14299011-.056747438 .115997318-.052734376 .10598755-.052734376 .08299255-.052734376 .049987794-.068740848 .049987794-.11773682 .049987794-.16796875 .09399414-.20507813 .1559906-.20507813 .25898744-.20507813 .3619995-.11373901 .3899994-.00074768069L.48599244 .38136292Z"/>
</defs>
<g clip-path="url(#clip_1)">
<path transform="matrix(1.00005,0,0,-1.00005,1.4609223,162.60106)" d="M77.70947 141.22182 79.73314 137.85939 81.7568 134.49698 83.7805 131.13457 85.80417 127.77214 87.82785 124.40973 89.85153 121.04733 91.8752 117.6849 93.8989 114.32248 95.92258 110.96007 97.94624 107.59766 99.96992 104.23524 101.99359 100.87285 104.01727 97.5104 106.04097 94.148 108.06464 90.78557 110.08832 87.42317 112.112 84.06073 114.13568 80.69833 116.15936 77.3359 118.18303 73.97351 120.2067 70.61108 122.2304 67.24867 124.25407 63.88625 126.27776 60.52383V60.52364H77.70947Z" fill="#8080ff" fill-opacity=".5"/>
<path transform="matrix(1.00005,0,0,-1.00005,1.4609223,162.60106)" d="M126.2779 60.52364 127.49208 62.54108 128.7063 64.55853 129.9205 66.57599 131.13472 68.59344 132.34894 70.6109 133.56314 72.62836 134.77736 74.64581 135.99158 76.66327 137.20577 78.68073 138.41999 80.69818 139.63419 82.71562 140.8484 84.73308 142.06262 86.75053 143.27683 88.76799 144.49105 90.78545 145.70526 92.8029 146.91945 94.82036 148.13367 96.83781 149.34787 98.85527 150.56209 100.87273 151.7763 102.89017 152.99051 104.90762 154.20473 106.92508 155.41895 108.94254V60.52364H126.2779Z" fill="#8080ff" fill-opacity=".5"/>
<path transform="matrix(1.00005,0,0,-1.00005,1.4609223,162.60106)" stroke-width=".79701" stroke-linecap="butt" stroke-miterlimit="10" stroke-linejoin="miter" fill="none" stroke="#0000ff" d="M38.85474 205.78035 42.49734 199.728 46.13998 193.67563 49.78261 187.62326 53.42525 181.5709 57.06789 175.51854 60.71051 169.46617 64.35315 163.41382 67.99579 157.36145 71.6384 151.30908 75.28104 145.25672 78.92366 139.20436 82.5663 133.152 86.20894 127.09962 89.85156 121.04727 93.4942 114.9949 97.13684 108.94254 100.77945 102.89017 104.42209 96.83781 108.06471 90.78545 111.70735 84.73308 115.34999 78.68073 118.99261 72.62836 122.63525 66.57599 126.2779 60.52364"/>
<path transform="matrix(1.00005,0,0,-1.00005,1.4609223,162.60106)" stroke-width=".79701" stroke-linecap="butt" stroke-miterlimit="10" stroke-linejoin="miter" fill="none" stroke="#0000ff" d="M126.2779 60.52364 129.11104 65.23102 131.94419 69.9384 134.77735 74.64578 137.61049 79.35316 140.44367 84.06058 143.27681 88.76796 146.10996 93.47534 148.94313 98.18274 151.77628 102.89012 154.60944 107.59752 157.44258 112.30482 160.27574 117.01236 163.10889 121.71968 165.94205 126.427 168.77519 131.13454 171.60836 135.84186 174.44152 140.54918 177.27466 145.25652 180.10782 149.96405 182.94097 154.67137 185.77413 159.37871 188.60727 164.08623 191.44043 168.79355 194.27359 173.50089"/>
<use data-text="A" xlink:href="#font_2_2" transform="matrix(9.963098,0,0,-9.963098,97.48872,84.55616)"/>
<use data-text="1" xlink:href="#font_3_1" transform="matrix(6.9741489,0,0,-6.9741489,104.96109,86.05024)"/>
<use data-text="A" xlink:href="#font_2_2" transform="matrix(9.963098,0,0,-9.963098,136.34568,92.625568)"/>
<use data-text="3" xlink:href="#font_3_2" transform="matrix(6.9741489,0,0,-6.9741489,143.81804,94.119647)"/>
</g>
<path transform="matrix(1.00005,0,0,-1.00005,1.4609223,162.60106)" stroke-width=".19925" stroke-linecap="butt" stroke-miterlimit="10" stroke-linejoin="miter" fill="none" stroke="#7f807f" d=""/>
<path transform="matrix(1.00005,0,0,-1.00005,1.4609223,162.60106)" stroke-width=".19925" stroke-linecap="butt" stroke-miterlimit="10" stroke-linejoin="miter" fill="none" stroke="#7f807f" d="M76.29211 0H79.12682M76.29211 40.34909H79.12682M76.29211 80.69818H79.12682M76.29211 121.04727H79.12682M76.29211 161.39636H79.12682"/>
<path transform="matrix(1.00005,0,0,-1.00005,1.4609223,162.60106)" stroke-width=".19925" stroke-linecap="butt" stroke-miterlimit="10" stroke-linejoin="miter" fill="none" stroke="#7f807f" d="M75.58363 20.17455H79.83528M75.58363 100.87273H79.83528M75.58363 141.22182H79.83528"/>
<path transform="matrix(1.00005,0,0,-1.00005,1.4609223,162.60106)" stroke-width=".3985" stroke-linecap="butt" stroke-miterlimit="10" stroke-linejoin="miter" fill="none" stroke="#000000" d="M0 60.52364H192.28116"/>
<path transform="matrix(1.00005,0,0,-1.00005,193.75168,102.0744)" d="M1.99252 0-1.19551 1.59401 0 0-1.19551-1.59401"/>
<path transform="matrix(1.00005,0,0,-1.00005,1.4609223,162.60106)" stroke-width=".3985" stroke-linecap="butt" stroke-miterlimit="10" stroke-linejoin="miter" fill="none" stroke="#000000" d="M77.70947 0V159.40384"/>
<path transform="matrix(0,-1.00005,-1.00005,-0,79.17428,3.1892548)" d="M1.99252 0-1.19551 1.59401 0 0-1.19551-1.59401"/>
<use data-text="&#x2212;" xlink:href="#font_4_1" transform="matrix(9.963098,0,0,-9.963098,55.815645,145.22119)"/>
<use data-text="1" xlink:href="#font_5_2" transform="matrix(9.963098,0,0,-9.963098,63.56503,145.22119)"/>
<use data-text="0" xlink:href="#font_5_1" transform="matrix(9.963098,0,0,-9.963098,68.54658,145.22119)"/>
<use data-text="1" xlink:href="#font_5_2" transform="matrix(9.963098,0,0,-9.963098,63.565027,64.93418)"/>
<use data-text="0" xlink:href="#font_5_1" transform="matrix(9.963098,0,0,-9.963098,68.54657,64.93418)"/>
<use data-text="2" xlink:href="#font_5_3" transform="matrix(9.963098,0,0,-9.963098,63.565027,24.582169)"/>
<use data-text="0" xlink:href="#font_5_1" transform="matrix(9.963098,0,0,-9.963098,68.54657,24.582169)"/>
<path transform="matrix(1.00005,0,0,-1.00005,1.4609223,162.60106)" stroke-width=".19925" stroke-linecap="butt" stroke-miterlimit="10" stroke-linejoin="miter" fill="none" stroke="#7f807f" d="M126.2779 58.39774V62.6495M155.41895 58.39774V62.6495"/>
<use data-text="5" xlink:href="#font_5_4" transform="matrix(9.963098,0,0,-9.963098,120.27286,115.19269)"/>
<use data-text="/" xlink:href="#font_2_1" transform="matrix(9.963098,0,0,-9.963098,125.254108,115.19269)"/>
<use data-text="8" xlink:href="#font_5_5" transform="matrix(9.963098,0,0,-9.963098,130.23636,115.19269)"/>
<use data-text="1" xlink:href="#font_5_2" transform="matrix(9.963098,0,0,-9.963098,154.39656,114.14164)"/>
<use data-text="t" xlink:href="#font_2_3" transform="matrix(9.963098,0,0,-9.963098,188.61328,98.55886)"/>
<use data-text="y" xlink:href="#font_2_4" transform="matrix(9.963098,0,0,-9.963098,82.69098,9.020386)"/>
</svg>
